# xmcd
#
# Track frame offsets:
#	183
#	13525
#	25078
#	36315
#	47203
#	57238
#	68288
#	79690
#	91110
#	102030
#	112770
#	122798
#	133560
#	144190
#	156250
#	164733
#	174328
#	182900
#	194495
#	207620
#	218125
#	228918
#	241505
#	252258
#
# Disc length: 3518 seconds
# Revision: 1
# Processed by: cddbd v1.5.2PL0 Copyright (c) Steve Scherf et al.
# Submitted via: dBpowerAMP V12.0
#
DISCID=3c0dbc18
DTITLE=George Jones - Goerge Jones Salutes Hank Williams and Bob Wills
DYEAR=1998
DGENRE=Country
TTITLE0=Wedding Bells
TTITLE1=I Just Don't Like This Kind of Living
TTITLE2=You Win Again
TTITLE3=I Could Never Be Ashamed of You
TTITLE4=You're Gonna Change (Or I'm Gonna Leave)
TTITLE5=House Without Love
TTITLE6=Your Cheatin' Heart
TTITLE7=They'll Never Take Her from Me
TTITLE8=Mansion on the Hill
TTITLE9=Take These Chains from My Heart
TTITLE10=(Last Night) I Heard You Crying in Your Sleep
TTITLE11=Lonesome Whistle
TTITLE12=Bubbles in My Beer
TTITLE13=Faded Love
TTITLE14=Roly Poly
TTITLE15=Trouble in Mind
TTITLE16=Take Me Back to Tulsa
TTITLE17=The Warnm Red Wine
TTITLE18=Time Changes Everything
TTITLE19=Worried Mind
TTITLE20=Silver Dew on the Blue Grass Tonight
TTITLE21=San Antonio Rose
TTITLE22=Steel Guitar Rag
TTITLE23=Big Beaver
EXTD=
EXTT0=
EXTT1=
EXTT2=
EXTT3=
EXTT4=
EXTT5=
EXTT6=
EXTT7=
EXTT8=
EXTT9=
EXTT10=
EXTT11=
EXTT12=
EXTT13=
EXTT14=
EXTT15=
EXTT16=
EXTT17=
EXTT18=
EXTT19=
EXTT20=
EXTT21=
EXTT22=
EXTT23=
PLAYORDER=
